<?xml version="1.0" encoding="utf-8"?>
<!-- Generator: Adobe Illustrator 24.0.3, SVG Export Plug-In . SVG Version: 6.00 Build 0)  -->
<svg version="1.1"
	 id="Layer_1" xmlns:cc="http://creativecommons.org/ns#" xmlns:dc="http://purl.org/dc/elements/1.1/" xmlns:inkscape="http://www.inkscape.org/namespaces/inkscape" xmlns:rdf="http://www.w3.org/1999/02/22-rdf-syntax-ns#" xmlns:sodipodi="http://sodipodi.sourceforge.net/DTD/sodipodi-0.dtd" xmlns:svg="http://www.w3.org/2000/svg"
	 xmlns="http://www.w3.org/2000/svg" xmlns:xlink="http://www.w3.org/1999/xlink" x="0px" y="0px" viewBox="0 0 20 12"
	 style="enable-background:new 0 0 20 12;" xml:space="preserve">
<style type="text/css">
	.st0{fill-rule:evenodd;clip-rule:evenodd;fill:#FAFAD2;}
</style>
<g transform="translate(0,-952.36216)">
	<path class="st0" d="M14,952.4c-1.3,0-2.4,1.1-2.4,2.5c0,2.1,3.4,4.5,3.8,4.7c0.1,0.1,0.2,0.1,0.3,0.1c0.1,0,0.2,0,0.3-0.1
		c0.4-0.3,3.8-2.6,3.8-4.7c0-1.4-1.1-2.5-2.4-2.5c-0.7,0-1.3,0.3-1.8,0.8C15.4,952.7,14.7,952.4,14,952.4z M6.1,957
		c-0.2,0-0.3,0-0.5,0c-0.9,0.1-1.7,0.6-3.1,1.4L0,959.9l0.9,1.5l0.8,1.3l0.6,1.1l0.3,0.5l1.2-0.7c1.2-0.7,1.2-0.7,2.5-0.3l1.3,0.3
		l1.3,0.3c1.3,0.3,1.3,0.3,3.2-0.1l1.9-0.5l3-0.7c0.5-0.1,0.5-0.7,0.3-1.1h0c-0.2-0.3-0.5-0.5-0.8-0.5l-1.9,0l-1.4,0
		c-1.4,0-1.4,0-3.2-0.5L7.9,960l-0.1,0c-0.2-0.1-0.3-0.3-0.3-0.5l0,0c0.1-0.2,0.3-0.3,0.5-0.3c0,0,0.1,0,0.1,0l2.2,0.7
		c0.4,0.2,0.9-0.1,1.1-0.5c0.1-0.2,0.1-0.5-0.1-0.7c-0.1-0.2-0.3-0.3-0.5-0.4l-2.4-0.8C7.5,957.3,6.8,957,6.1,957L6.1,957z"/>
</g>
</svg>
