<svg xmlns="http://www.w3.org/2000/svg" viewBox="0 0 1646.51 232.14"><title>Asset 4</title><g id="Layer_2" data-name="Layer 2"><g id="Layer_1-2" data-name="Layer 1"><path d="M189.44,65.5h3a4.78,4.78,0,0,0,2.52-1,2.66,2.66,0,0,0,1-2.17,18.44,18.44,0,0,1,.59-4.06c.4-1.65.27-2.67-.39-3.07A4.9,4.9,0,0,0,194,54c-.91-.27-1.75-.53-2.52-.8a2.51,2.51,0,0,0-2.13.2A2.31,2.31,0,0,0,188,55q-.78,2.37-1.36,4.75a11.67,11.67,0,0,0-.19,4.74A5.51,5.51,0,0,0,189.44,65.5Z"/><path d="M353.75,65.5a3.54,3.54,0,0,0,2.08.8h2.67a4.68,4.68,0,0,0,2.47-.6c.66-.26,1.06-1.22,1.19-2.87a25.71,25.71,0,0,1,.59-4q.6-2.78-2.37-3.76c-.93-.27-1.88-.56-2.87-.9a5.19,5.19,0,0,0-3.27.1,9.42,9.42,0,0,0-1.18,4.56c0,1.58-.07,3.23-.2,4.94A1.73,1.73,0,0,0,353.75,65.5Z"/><path d="M422.12,82.33c-1.06,2-2.11,4-3.17,5.93s-2.11,3.9-3.16,5.74a51.41,51.41,0,0,1-3.57,5.44c-1.58,2.18-3.3,4.33-5.14,6.44a43.72,43.72,0,0,1-5.94,5.64,17.66,17.66,0,0,1-6,3.26,6.81,6.81,0,0,1-5.25-.49c-1.58-.86-2.84-2.81-3.76-5.84a41,41,0,0,1,.4-5.25q.39-3.06,1.09-6.23t1.48-6.23c.53-2,1-3.86,1.39-5.45a31.46,31.46,0,0,0,10.88-5.54q5.15-3.94,7.92-12.86a8.09,8.09,0,0,0,.29-4,8.19,8.19,0,0,0-1.88-4.45,6.45,6.45,0,0,0-4.45-2.18c-1.91-.2-4.39.69-7.42,2.67l-2.08,2.08c-.73.73-1.42,1.49-2.08,2.28a58.44,58.44,0,0,0-8.95,17.24l-.15,0a67.57,67.57,0,0,0-2.47,7,67.34,67.34,0,0,1-2.48,7q-2,4.35-3.85,8.6t-4.06,8.61a11.42,11.42,0,0,1-2.57,3.66A12.76,12.76,0,0,1,363,118a9.66,9.66,0,0,1-1.78-6.93q.19-4,.1-7.72a20.09,20.09,0,0,1,1.28-7.52,2.63,2.63,0,0,0,.3-1.58,5.52,5.52,0,0,1,.1-1.78v-5c0-1.65.07-3.33.2-5A9.64,9.64,0,0,0,363,79a4.45,4.45,0,0,0-1.78-2.57,11.25,11.25,0,0,0-3.86-2,5.07,5.07,0,0,0-4.25.79c.13,1.06.22,2.08.29,3.07s.1,2,.1,3.07c0,.32,0,.63,0,1l-.06.12c-.33.73-.62,1.49-.89,2.28a125.25,125.25,0,0,1-5,12.76q-2.88,6.24-6,12.17a40.69,40.69,0,0,1-3.66,5.65q-2.09,2.67-4.26,5.24c-1.18,1.32-2.31,1.91-3.36,1.78a6.59,6.59,0,0,1-3.56-2.18,12.92,12.92,0,0,1-3.17-9.69,26.13,26.13,0,0,1,2.48-2.87,16.39,16.39,0,0,0,2.27-2.87,63.82,63.82,0,0,0,5.05-11.78,38.18,38.18,0,0,0,1.68-12.56,9,9,0,0,0-4-7.62,8.83,8.83,0,0,0-8.51-1.29,24.19,24.19,0,0,0-4.95,2.38,12.71,12.71,0,0,0-3.76,3.76,28.82,28.82,0,0,1-2.27,2.77,7.33,7.33,0,0,1-3.66,2q-.4-10.1-.2-19.6t0-19q-.41-9.51-.5-18.9t-.29-18.9L299.23,0c-.26.93-.46,1.62-.6,2.08a4.74,4.74,0,0,0-.19,1.29L299,38.2q.41,11.27.59,22.46c.13,7,.12,14,0,21L297.85,87q-1.2,3.47-2.77,7.22a69.11,69.11,0,0,1-6.24,12.17A58.5,58.5,0,0,1,280,117.16a9.83,9.83,0,0,1-4.84,2.77,11,11,0,0,1-5.05,0,10.45,10.45,0,0,1-4.25-2.18,7.43,7.43,0,0,1-2.48-4,14.38,14.38,0,0,1-.89-5.44,32.53,32.53,0,0,1,.69-5.44c.53-2.24,1.12-4.46,1.78-6.63s1.32-4.39,2-6.63a72.17,72.17,0,0,1,2.87-7.42A79.35,79.35,0,0,1,274,74.11a47.27,47.27,0,0,1,4.35-6.33c1.39-1.65,2.48-2.4,3.27-2.28q2.17.6,3.26,4.06a51.74,51.74,0,0,1,1.69,7c.26.92.62,1.18,1.08.79a2.09,2.09,0,0,0,.5-2,16.83,16.83,0,0,0-.5-3.56,18.4,18.4,0,0,0-1.48-4.16,11.85,11.85,0,0,0-3.66-4.55q-1.89-1.18-5.44-.2a11.67,11.67,0,0,0-4.65,2.48A24.3,24.3,0,0,0,269,69.26a77.73,77.73,0,0,0-6.1,10.81,1.46,1.46,0,0,0-.43-.32c-.48,1.56-.92,3-1.33,4.48a74.53,74.53,0,0,0-4.41,17.09c-.1.77-.17,1.53-.2,2.28q-.53,1.86-1.08,3.66A65.59,65.59,0,0,1,249,121.51a3.13,3.13,0,0,1-1,1.19,9.62,9.62,0,0,0-1.39,1.18c-.4-.66-.73-1.18-1-1.58a4.71,4.71,0,0,1-.59-1.19c-.4-2-.79-4-1.19-5.93a44.77,44.77,0,0,1-.79-5.94q-.41-7.92-.5-15.73c-.06-5.21,0-10.46.3-15.74q.19-1.77.3-3.66c.06-1.25.1-2.47.1-3.66q0-.39-1-1.38c-.66,0-1.42,0-2.28.1s-1.68.16-2.47.29l-3.17,4.16-3-2.77a8.19,8.19,0,0,0-4.55-2.28,7.71,7.71,0,0,0-4.55,1.68,6.4,6.4,0,0,0-1.58,1.29c-.4.46-.86,1-1.39,1.68a47.11,47.11,0,0,0-7.82,14.94,63.07,63.07,0,0,0-2,8.22c-.36.92-.7,1.86-1.07,2.77L202.86,109c-.8,1.45-1.42,2.57-1.88,3.37a20.56,20.56,0,0,1-1.29,2,9.07,9.07,0,0,1-1.29,1.39c-.46.4-1.09.92-1.88,1.58a5.6,5.6,0,0,1-.39-2.07V113.2q-.21-6.93-.1-13.76t.1-13.75v-5A6.94,6.94,0,0,0,194.19,76l-7.76-.59a21,21,0,0,0,.2,3.76q.39,11.28.69,22.56c0,.63.05,1.25.06,1.88-.74.82-1.51,1.61-2.32,2.35-9.87,9-23.22,12.91-35.87,16.18a337.51,337.51,0,0,1-81.64,10.44A393.94,393.94,0,0,1,0,127.14c1.9,1.36,3.82,2.68,5.78,3.94a395.34,395.34,0,0,0,57.8,4.5A343.07,343.07,0,0,0,146.13,126c12.73-3.11,26.12-6.64,36.86-14.51a44.24,44.24,0,0,0,4.53-3.82c.18,5.54.4,11.08.69,16.62a22.64,22.64,0,0,1-1.09,8.31,27.48,27.48,0,0,1-3.86,7.32,160.66,160.66,0,0,0-17.41,27.31q-2.37,4.75-4.95,9.3t-5,9.31a35.66,35.66,0,0,0-3.56,8.7c-.52,2.64-1,5.28-1.48,7.92s-.82,5.34-1.09,8.11a17.1,17.1,0,0,0,0,5.15c.27,1.71.53,3.43.79,5.14a9.18,9.18,0,0,0,1.78,4.16,9.78,9.78,0,0,0,3.37,2.77A31.41,31.41,0,0,0,168,231.34a12.57,12.57,0,0,0,6.72-1,25.59,25.59,0,0,0,5.94-4,18.4,18.4,0,0,0,4.45-6.23,48.92,48.92,0,0,0,2.48-7.42,182.51,182.51,0,0,0,4-22.66q1.26-11.39,2.8-22.86,1-8.9,1.26-17.91t.48-18.1v-2.08a5.61,5.61,0,0,1,.39-2.08c.27-.79.5-1.58.7-2.37a4.08,4.08,0,0,1,1.08-2,39.13,39.13,0,0,0,5.64-8.12q2.13-4.06,4.7-8a13.54,13.54,0,0,0,2.13,6.58A8.39,8.39,0,0,0,217.5,117a8,8,0,0,0,3.27-.2,9.94,9.94,0,0,0,2.86-2,21.8,21.8,0,0,0,4.56-5.24c1.05-1.79,2.17-3.86,3.36-6.24a27.12,27.12,0,0,0,1.68-4.94,19,19,0,0,1,1.88-5,3.24,3.24,0,0,0,1.39.39v2.38a10.57,10.57,0,0,0,.2,2.18q.39,4,.69,7.71a65.7,65.7,0,0,0,1.09,7.72,36.76,36.76,0,0,0,1.18,5.15,52.34,52.34,0,0,0,1.79,4.94c1.31,2.91,2.77,4.42,4.35,4.56s3.17-1.12,4.75-3.76a72.12,72.12,0,0,0,5.94-12.47c.2-.57.38-1.13.57-1.7a26.9,26.9,0,0,0,3,7.63q3.17,5.35,8.31,5.55a13.11,13.11,0,0,0,9-1.29,28.31,28.31,0,0,0,8.51-7,57,57,0,0,0,7.52-11.67,112.26,112.26,0,0,0,6.2-15.32q-.06,7.47-.26,14.92-.3,10.1-.5,20.19-.19,4.16-.2,8.31v8.31a4.53,4.53,0,0,0,.89,3.46,10.32,10.32,0,0,0,2.87,2.28,2.5,2.5,0,0,0,4-2,9.42,9.42,0,0,0,.1-2.37c-.07-.79-.1-1.59-.1-2.38l.4-32.85a46.84,46.84,0,0,1,2.87-15.44A37.87,37.87,0,0,1,318,77.77a18.58,18.58,0,0,1,3.36-2.67,6.78,6.78,0,0,1,4.55-.69c.13.79.27,1.58.4,2.37a6.13,6.13,0,0,1,0,2.18,108,108,0,0,1-2.87,14.15,49.46,49.46,0,0,1-5.84,13.16,9.59,9.59,0,0,0-1.18,2.38,3.53,3.53,0,0,0,.19,2.57q1.59,3.36,3.37,6.33a24,24,0,0,0,4.35,5.34,8.9,8.9,0,0,0,5.54,3,5.72,5.72,0,0,0,2.48-1,17.88,17.88,0,0,0,4.05-3.76,72.69,72.69,0,0,0,5.64-7.81,128.57,128.57,0,0,0,7.23-13.16q1.57-4,3.16-7.82c.19-.45.37-.92.56-1.38-.1,2.53-.16,5.13-.16,7.81,0,2.25.1,4.45.29,6.63s.37,4.39.5,6.63a10.49,10.49,0,0,0,1.68,4.45,18.91,18.91,0,0,0,3.07,3.47q4.74,4,9.7,0a19.94,19.94,0,0,0,5.34-7.72L379,98.78c-.12,1.75-.19,3.72-.19,5.91a15.62,15.62,0,0,0,1.88,7.72,19.3,19.3,0,0,0,5.24,5.93,7.88,7.88,0,0,0,8.31.79c2.11-1.18,4-2.27,5.74-3.26a33,33,0,0,0,5.45-4.06,60.5,60.5,0,0,0,6.33-6.83q3.47-4.24,8.21-11.37a32.41,32.41,0,0,0,3-5.84q1.18-3.08,2.57-6Q423.11,79.75,422.12,82.33Zm-28.7-8.51a49.62,49.62,0,0,1,3.07-6.24,40.79,40.79,0,0,1,3.36-4.95c1.12-1.38,2-2.47,2.68-3.26a4.78,4.78,0,0,1,1.78.4,4.34,4.34,0,0,1,1.78,1.38,4.69,4.69,0,0,1,.89,2.67,9.5,9.5,0,0,1-.89,4.06,28.15,28.15,0,0,1-4.55,7.32A18.47,18.47,0,0,1,397,79a11.29,11.29,0,0,1-3.67,1.39,7.8,7.8,0,0,0-1.88.39A32.34,32.34,0,0,1,393.42,73.82Zm-205.6,72.43q-.4,10.08-1.39,19.79t-2.57,19.59c-.53,2.63-1,5.34-1.29,8.11s-.69,5.47-1.09,8.11c-.26,1.32-.49,2.61-.69,3.86s-.43,2.48-.69,3.67a24.37,24.37,0,0,1-2.57,7.12,37.5,37.5,0,0,1-4.16,5.94,12.08,12.08,0,0,1-5.84,4.15,17.7,17.7,0,0,1-7,.6A7.61,7.61,0,0,1,154,222c-.27-.92-.53-1.88-.8-2.87a23.15,23.15,0,0,1-.59-3.07,67.32,67.32,0,0,1,.2-8.9,27.93,27.93,0,0,1,2.17-8.51,7.5,7.5,0,0,0,.6-1.58c.13-.53.26-1.13.39-1.79a34.07,34.07,0,0,1,3.57-10.48q2.56-4.76,5.34-9.5c1.19-2,2.34-4,3.46-6a62.41,62.41,0,0,0,3.07-6.43c.79-1.85,1.58-3.56,2.38-5.15a24.76,24.76,0,0,1,3-4.55,45.34,45.34,0,0,0,2.87-4q1.29-2,2.87-4a18,18,0,0,1,1.88-2L187,140.9a16.21,16.21,0,0,0,.6,3.07A4.75,4.75,0,0,1,187.82,146.25Zm46.9-61.35q-2.19,7.32-4.46,14.15a27.66,27.66,0,0,1-8,12q-2.17,1.78-3.36,1.29a3.48,3.48,0,0,1-1.79-2.38,15,15,0,0,1-.59-4.45,26.06,26.06,0,0,1,.4-4.75,69.68,69.68,0,0,1,4-14.35A53.86,53.86,0,0,1,228.58,73,5.37,5.37,0,0,1,231,75,19.89,19.89,0,0,1,233,78.47a22.13,22.13,0,0,1,1.39,3.66A6.38,6.38,0,0,1,234.72,84.9Z"/><path d="M518.89,99.74a15.68,15.68,0,0,0-3-5.34,14.36,14.36,0,0,0-4.06-3.17,23.18,23.18,0,0,0-4.95-1.88q-2.67-.69-5.64-1.29,5.75-4.35,10.49-8.7a47.12,47.12,0,0,0,7.62-8.71,22.21,22.21,0,0,0,3.56-9,17.26,17.26,0,0,0-1.48-9.6,13.67,13.67,0,0,0-2.37-3.37,19.48,19.48,0,0,0-3.57-3.16,6.76,6.76,0,0,0-2.87-1.29c-.72-.06-.89.56-.49,1.88,1.05.66,1.84,1.19,2.37,1.58a14.49,14.49,0,0,1,1.39,1.19q4.76,4.75,4.45,10.09a21,21,0,0,1-3.46,10.29,42.18,42.18,0,0,1-8.12,9.21,65.78,65.78,0,0,1-9.3,6.82q-2.17,1.39-4.35,2.67c-1.45.87-2.9,1.82-4.35,2.87Q488,93,485.44,95.09a46.63,46.63,0,0,0-4.94,4.65,42,42,0,0,0-7.33,9.89,6.23,6.23,0,0,1,1.68.2,1,1,0,0,0,1.09-.2,8.52,8.52,0,0,0,2.38-2.57,26.73,26.73,0,0,1,5.84-7.12q3.45-3,7.22-5.74a13.76,13.76,0,0,1,7.42-2.77,34.12,34.12,0,0,1,8,.59,10.68,10.68,0,0,1,5.44,2.48A13.7,13.7,0,0,1,515.52,99a16,16,0,0,1,1.39,5.64,33.46,33.46,0,0,1-.2,6.23,50.48,50.48,0,0,1-4.55,15,59.73,59.73,0,0,1-9,13.76,57.14,57.14,0,0,1-12.46,10.68,46.91,46.91,0,0,1-15.14,6.24A26.74,26.74,0,0,1,457.44,154a26,26,0,0,1-7.22-5.74,26.54,26.54,0,0,1-5-8.11,45.32,45.32,0,0,1-2.87-14A60.08,60.08,0,0,1,443.49,112a48.16,48.16,0,0,1,2.87-9.4q1.88-4.45,4.06-8.81A133.76,133.76,0,0,1,462,75.3,76.88,76.88,0,0,1,477.33,60q2.37-1.77,4.85-3.36c1.65-1.06,3.33-2.11,5-3.17a8.55,8.55,0,0,0,1.39-1.28,1.54,1.54,0,0,0,.2-1.69,7.38,7.38,0,0,0-1.39-2.27,9.72,9.72,0,0,0-1.78-1.88c-1.32-.4-2.61-.73-3.86-1l-3.66-.79a15.57,15.57,0,0,1-3.46-1.19c-.73-.4-1.22-1.38-1.49-3a13.08,13.08,0,0,1,1-6.23,47.45,47.45,0,0,1,3.76-7.92,49.59,49.59,0,0,1,5.64-7.72A25.6,25.6,0,0,1,490.29,13,10.08,10.08,0,0,1,497,11.68c2.18.39,4.12,2,5.84,4.75,1.45,2.64,1.81,5,1.09,7.22s-1.49,4.58-2.28,7.22q3,1.79,4.35-1a20.68,20.68,0,0,0,2.38-7.32A13.47,13.47,0,0,0,507,15.24a15.45,15.45,0,0,0-6.23-6.43,20.24,20.24,0,0,0-8.71-2.58,27.47,27.47,0,0,0-9.4,1.09,19.78,19.78,0,0,0-8.11,4.56A37.17,37.17,0,0,0,468.72,19,28,28,0,0,0,465,27.71a18,18,0,0,0,.1,9q1.19,4.45,5.94,8l4.55,3.37-4.36,4.16q-4.15,3.36-7.91,7a56.19,56.19,0,0,0-6.93,8.21,145,145,0,0,0-9.7,14.25,99.4,99.4,0,0,0-7.51,15.64,64.22,64.22,0,0,0-4.46,19.19,50.8,50.8,0,0,0,2.67,19.79,38,38,0,0,0,7.82,13.16,34.78,34.78,0,0,0,12,8.41A31.08,31.08,0,0,0,476.93,160a47.1,47.1,0,0,0,17.91-8.51,64.62,64.62,0,0,0,14.25-15,71.41,71.41,0,0,0,9-17.71A26.34,26.34,0,0,0,518.89,99.74Z"/><path d="M558.38,66.21h3a4.83,4.83,0,0,0,2.52-1,2.47,2.47,0,0,0,.63-.78,2.64,2.64,0,0,0,.9-2.1,18.44,18.44,0,0,1,.59-4.06c.4-1.65.27-2.67-.39-3.07A4.84,4.84,0,0,0,563.49,54c-.9-.27-1.74-.53-2.52-.8a2.91,2.91,0,0,0-3.34,1.35,2,2,0,0,0-.71,1.14q-.78,2.39-1.36,4.75a11.73,11.73,0,0,0-.19,4.75A5.51,5.51,0,0,0,558.38,66.21Z"/><path d="M1143.16,113c36.82-5.89,73.18-14.51,110-19.19a1172.51,1172.51,0,0,1,131.74-9.27c50-.69,100.25,1.85,149.4,11.17,42.65,8.09,87.51,23.5,112.19,59.2-.35-.71-.71-1.42-1.09-2.12-9.26-17.54-25-31.17-42.56-40.48-18.27-9.68-38.51-15-58.78-19-49.39-9.76-100-12-150.32-11.78-56.63.23-114.75,2.19-170.49,12.8-16,3-32.35,5.66-48.49,8.51-16,2.82-31.81,6.93-48,8.46-3.12.29-6.25.55-9.38.82-22.71,2-45.17,1.29-67.91,0q-22.26-1.23-44.42-3.66-10.74-1.19-21.45-2.68A686.82,686.82,0,0,1,901.15,89.2C882.9,84.31,864.87,78.35,847.06,72c-14.38-5.1-28.31-10-42.09-16.64-28.24-13.61-60.29-21.64-89.2-4.62a71.29,71.29,0,0,0-18.59,15.88c-5.79,7-9.88,15.23-13.48,23.5-3.29,7.57-4.65,15.6-8.8,22.86a12.59,12.59,0,0,1-2.28,3.06,10.16,10.16,0,0,1-2.27,1.59,16.9,16.9,0,0,1-1.39-5.55c-.13-1.84-.27-3.69-.4-5.54V89.17a21.92,21.92,0,0,0-2-9.7,14,14,0,0,0-3.95-5.14,9.78,9.78,0,0,0-6.1-1.78A37.29,37.29,0,0,0,649.76,80a85.32,85.32,0,0,0-5.14,8.6l-3.76,6.34a2.81,2.81,0,0,1-1.09,1.19c-.46.26-1.09.13-1.88-.4a16.05,16.05,0,0,0-.1-1.88,16.05,16.05,0,0,1-.1-1.88V75.71a7.88,7.88,0,0,0-.59-3.16,3.73,3.73,0,0,0-2.57-2,6.37,6.37,0,0,1-1.88-.7c-.6-.32-1.23-.62-1.88-.89a8.8,8.8,0,0,0-3,.2q.39,5.94.79,11.38c.06.79.11,1.56.17,2.34a3.85,3.85,0,0,1-2,1.82,5.51,5.51,0,0,1-4.15-.3,22.69,22.69,0,0,1-6.24-4.16,68.14,68.14,0,0,1-8.61-9.5,1.37,1.37,0,0,0-.89-.19,4,4,0,0,0-1.28.19,1.23,1.23,0,0,0-.8.7c-.13.33,0,.76.4,1.28.4.79.66,1.29.79,1.49a1.13,1.13,0,0,1,.2.39.69.69,0,0,0,.1.3c.06.13.36.59.89,1.39a25.08,25.08,0,0,1,3.17,7,35.63,35.63,0,0,1,1.18,7.22v4.16a17.55,17.55,0,0,1-.39,3.76A44.36,44.36,0,0,1,608,108.86a23.77,23.77,0,0,1-6.73,8.61c-.39.26-.82.56-1.28.89a8.09,8.09,0,0,1-1.69.89q-2.17,1-4.35-1a13,13,0,0,1-4.25-5.54,14.31,14.31,0,0,1-.9-5.94,59.65,59.65,0,0,1,2-15.63,35.59,35.59,0,0,1,7.57-13.94l1-1a9,9,0,0,0,1.74-2.12,2.57,2.57,0,0,0,.1-2.67,4.67,4.67,0,0,0-2.47-2.28,20.71,20.71,0,0,0-3.27-1.28c-1.12-.33-2.21-.7-3.26-1.09a3.31,3.31,0,0,1-.79.59,1.27,1.27,0,0,0-.6.59,39.45,39.45,0,0,0-7.91,15.14c-.39,1.48-.73,3-1,4.48v0c-.21.54-.46,1.31-.74,2.32q-1,2.58-1.88,5.05c-.6,1.65-1.22,3.26-1.88,4.85l-5.54,9.89c-.79,1.45-1.42,2.57-1.88,3.36a19.63,19.63,0,0,1-1.29,2,9.07,9.07,0,0,1-1.29,1.39c-.46.39-1.08.92-1.88,1.58a5.61,5.61,0,0,1-.39-2.08v-2.07q-.21-6.93-.1-13.76t.1-13.75V81.35a6.92,6.92,0,0,0-1.94-4.65l-7.76-.59a21,21,0,0,0,.2,3.76q.39,11.28.69,22.56t.89,22.56a22.67,22.67,0,0,1-1.09,8.31,27.48,27.48,0,0,1-3.86,7.32,160.66,160.66,0,0,0-17.41,27.31q-2.37,4.75-4.95,9.3t-5,9.3a35.57,35.57,0,0,0-3.56,8.71c-.52,2.64-1,5.28-1.48,7.92s-.82,5.34-1.09,8.11a17.1,17.1,0,0,0,0,5.15c.27,1.71.53,3.43.79,5.14a9.23,9.23,0,0,0,1.78,4.16,9.78,9.78,0,0,0,3.37,2.77A31.58,31.58,0,0,0,537,232.05a12.62,12.62,0,0,0,6.73-1,25.76,25.76,0,0,0,5.93-4,18.4,18.4,0,0,0,4.45-6.23,48.92,48.92,0,0,0,2.48-7.42,182.84,182.84,0,0,0,4-22.66q1.26-11.39,2.8-22.86,1-8.91,1.26-17.91t.48-18.11v-2.07a5.61,5.61,0,0,1,.39-2.08c.27-.79.5-1.58.7-2.38a4.09,4.09,0,0,1,1.08-2,39.13,39.13,0,0,0,5.64-8.12,93.29,93.29,0,0,1,5-8.51,34.75,34.75,0,0,0,2.47-4.65,1.89,1.89,0,0,0,.09-.21,17,17,0,0,0,1,5,39.85,39.85,0,0,0,3.17,6.63,16,16,0,0,0,8.11,7.12,14.26,14.26,0,0,0,5.25,1.59,7.52,7.52,0,0,0,4.85-1.39,33.89,33.89,0,0,0,3.36-2.57,10.89,10.89,0,0,0,2.57-3.36q1.38-2.78,2.67-5.74t2.48-5.94a22.33,22.33,0,0,0,1.28-9.1q-.29-4.75-.89-9.5a3.92,3.92,0,0,0-.29-1.49,7.48,7.48,0,0,0-.7-1.28l-.79-1.59a7.08,7.08,0,0,0-.39-.69,3.84,3.84,0,0,1-.4-.79,11.25,11.25,0,0,0-.76-1.43c.15.19.67.8,1.55,1.83a32.3,32.3,0,0,0,4.55,4.25,19.74,19.74,0,0,0,6.14,3.27,6.06,6.06,0,0,0,5.72-1c.13,1.89.27,3.79.41,5.66.26,3.56.4,7.12.4,10.68v10.69c0,1.06,0,2.41.1,4.06s.09,3.39.09,5.24v9.3a7.24,7.24,0,0,0,2.22,5.38,3.3,3.3,0,0,0,2.35,1,8.59,8.59,0,0,0,3-.59l.79-4.35c0-.93,0-2.18.1-3.76s.09-3.2.09-4.85,0-3.27.1-4.85.1-2.84.1-3.76A45.71,45.71,0,0,1,645,95.9c.77-1.29,1.49-2.61,2.13-4s1.41-2.8,2.22-4.15c1-1.84,2.14-3.56,3.26-5.14s2.28-3.23,3.47-5a3.35,3.35,0,0,1,1.28-.69,9.88,9.88,0,0,0,1.88-.89c.27,1.32.5,2.47.7,3.46a16.23,16.23,0,0,1,.29,3.07,58.72,58.72,0,0,1,.1,5.93c-.07,2,0,4,.1,6.14q0,4,.1,8c.07,2.7.16,5.37.3,8a32.7,32.7,0,0,0,.81,5.34,14.82,14.82,0,0,0,2.23,5c1.63,2.51,3.5,3.89,5.63,4.16,5.11.63,7.77-8.12,9.36-11.6,5.91-13,8.06-27.83,17.31-39.15a76.19,76.19,0,0,1,18.49-16.55,63.93,63.93,0,0,1,14.57-7c25.24-8.15,54.26-1.72,78,8.47A688.91,688.91,0,0,0,893.1,90.1a676.31,676.31,0,0,0,83,17.65q29.13,4.35,58.55,6.45c28.39,2.07,57.26,3.88,85.57.83M556.76,147q-.4,10.1-1.39,19.79t-2.57,19.6c-.53,2.63-1,5.34-1.29,8.11s-.69,5.47-1.09,8.11c-.26,1.32-.49,2.61-.69,3.86s-.43,2.48-.69,3.66a24.33,24.33,0,0,1-2.57,7.13,37,37,0,0,1-4.16,5.93,12,12,0,0,1-5.84,4.16,17.5,17.5,0,0,1-7,.59,7.58,7.58,0,0,1-6.53-5.14c-.27-.93-.53-1.88-.8-2.87a23.15,23.15,0,0,1-.59-3.07,67.32,67.32,0,0,1,.2-8.9,27.67,27.67,0,0,1,2.18-8.51,7.89,7.89,0,0,0,.59-1.59c.13-.53.26-1.12.39-1.78a34.13,34.13,0,0,1,3.57-10.49q2.56-4.74,5.34-9.49c1.19-2,2.34-4,3.46-6a62.41,62.41,0,0,0,3.07-6.43c.79-1.85,1.58-3.56,2.38-5.15a24.76,24.76,0,0,1,3-4.55,46.9,46.9,0,0,0,2.87-4q1.29-2,2.87-3.95a18,18,0,0,1,1.88-2l2.67-2.38a16.21,16.21,0,0,0,.6,3.07A4.72,4.72,0,0,1,556.76,147Z"/></g></g></svg>