<?xml version="1.0" encoding="utf-8"?>
<!-- Generator: Adobe Illustrator 24.0.3, SVG Export Plug-In . SVG Version: 6.00 Build 0)  -->
<svg version="1.1" id="Layer_1" xmlns="http://www.w3.org/2000/svg" xmlns:xlink="http://www.w3.org/1999/xlink" x="0px" y="0px"
	 viewBox="0 0 62 80" style="enable-background:new 0 0 62 80;" xml:space="preserve" fill="lightgoldenrodyellow">
<title>9. paypal</title>
<g>
	<path d="M28.7,53.4c0-0.2,0.3-0.4,0.5-0.4h11.9c9,0,16.7-6.3,18.5-15.1l2.2-10.7C63,21,59,15,52.8,13.7c-0.3-0.1-0.6-0.1-0.8-0.1
		c0,0.1,0,0.2,0,0.3l-2.2,10.7c-1.9,9.3-10,15.9-19.5,15.9H18.8l-5.3,26.6l0,0L10.8,80h12.5L28.7,53.4z"/>
	<path d="M12.5,66.5l5.3-26.6c0-0.2,0.3-0.4,0.5-0.4h11.9c9,0,16.7-6.3,18.5-15.1l2.1-10.7c0,0,0-0.1,0-0.1s0-0.3,0.1-0.5
		c0-0.2,0.1-0.3,0.1-0.5c0.6-6.3-4-11.9-10.2-12.5C40.5,0,40.1,0,39.7,0H13.3L0,66.5H12.5z"/>
</g>
</svg>
